<svg width="16" height="16" viewBox="0 0 16 16" fill="none" xmlns="http://www.w3.org/2000/svg">
	<path d="M7.18452 2.91638 C6.01625 2.91638 4.98489 3.77623 4.91991 4.94678 H4.72024
	         C3.81569 4.94678 3 5.63731 3 6.58698 V8.10978 C3 9.05945 3.81569 9.74998 4.72024 9.74998
	         H5.33631 C5.67376 9.74998 6.02976 9.48559 6.02976 9.06153
	         C6.02976 8.46056 6.51694 7.97338 7.11791 7.97338 H8.27976
	         C9.18431 7.97338 10 7.28286 10 6.33318 V5.06418
	         C10 3.83417 8.93913 2.91638 7.73214 2.91638 H7.18452 Z"
	      stroke="black"
	      stroke-width="1.2" />
	<path d="M8.79613 13.0836 C9.97889 13.0836 11.0103 12.2025 11.0702 11.0191 H11.2738
	         C12.1885 11.0191 13 10.3146 13 9.36187 V7.8135 C13 6.86077 12.1885 6.15625 11.2738 6.15625
	         H10.6544 C10.3099 6.15625 9.96057 6.42749 9.96057 6.84577
	         C9.96057 7.46262 9.46051 7.96268 8.84365 7.96268 H7.69494
	         C6.78027 7.96268 5.96875 8.6672 5.96875 9.61993 V10.9102
	         C5.96875 12.148 7.02678 13.0836 8.24554 13.0836 H8.79613 Z"
	      stroke="black"
	      stroke-width="1.2" />
	<path d="M7.20312 6.01758 C7.64323 6.01758 8 5.6608 8 5.2207
	         C8 4.7806 7.64323 4.42383 7.20312 4.42383 C6.76302 4.42383 6.40625 4.7806 6.40625 5.2207
	         C6.40625 5.6608 6.76302 6.01758 7.20312 6.01758 Z"
	      fill="black" />
	<path d="M8.79687 11.5939 C9.23698 11.5939 9.59375 11.2372 9.59375 10.7971
	         C9.59375 10.357 9.23698 10.0002 8.79687 10.0002 C8.35677 10.0002 8 10.357 8 10.7971
	         C8 11.2372 8.35677 11.5939 8.79687 11.5939 Z"
	      fill="black" />
</svg>
