<svg width="16" height="16" viewBox="0 0 16 16" fill="none" xmlns="http://www.w3.org/2000/svg">
	<path d="M13.5896 12.1922 V3.80783 C13.5896 3.03608 12.9639 2.41045 12.1922 2.41045 H10.329
	         C9.55721 2.41045 8.93158 3.03608 8.93158 3.80783 V12.1922
	         C8.93158 12.9639 9.55721 13.5896 10.329 13.5896 H12.1922
	         C12.9639 13.5896 13.5896 12.9639 13.5896 12.1922 Z"
	      fill="#DCE0E5"
	      opacity="0.2" />
	<path d="M7.0684 12.1922 V3.80783 C7.0684 3.03608 6.44276 2.41045 5.67101 2.41045 H3.80782
	         C3.03607 2.41045 2.41043 3.03608 2.41043 3.80783 V12.1922
	         C2.41043 12.9639 3.03607 13.5896 3.80782 13.5896 H5.67101
	         C6.44276 13.5896 7.0684 12.9639 7.0684 12.1922 Z"
	      fill="#DCE0E5"
	      opacity="0.2" />
	<path d="M10.0497 12.1922 C10.0497 12.3465 10.1746 12.4715 10.329 12.4715 H12.0175 L13.1192 13.1074
	         C13.1474 13.1237 13.1769 13.137 13.2056 13.1511
	         C12.9509 13.4202 12.5919 13.5896 12.1922 13.5896 H10.329 L10.1862 13.5823
	         C9.48148 13.5107 8.93158 12.9157 8.93158 12.1922 V10.6892 L10.0497 11.3343 V12.1922 Z
	         M10.0497 7.03111 L8.93158 6.38609 V3.80783 C8.93158 3.0843 9.48148 2.48927 10.1862 2.41772
	         L10.329 2.41045 H12.1922 C12.9639 2.41045 13.5896 3.03608 13.5896 3.80783 V9.07534
	         L12.4715 8.42941 V3.80783 C12.4715 3.65348 12.3465 3.52854 12.1922 3.52854 H10.329
	         C10.1746 3.52854 10.0497 3.65348 10.0497 3.80783 V7.03111 Z"
	      fill="#DCE0E5" />
	<path d="M7.06842 9.61391 V12.1922 C7.06842 12.9639 6.44279 13.5896 5.67103 13.5896 H3.80784
	         L3.66501 13.5823 C2.96036 13.5107 2.41046 12.9157 2.41046 12.1922 V6.92376
	         L3.52855 7.56969 V12.1922 C3.52855 12.3465 3.65349 12.4715 3.80784 12.4715 H5.67103
	         C5.82538 12.4715 5.95032 12.3465 5.95032 12.1922 V8.96798 L7.06842 9.61391 Z
	         M5.67103 2.41045 C6.44279 2.41045 7.06842 3.03608 7.06842 3.80783 V5.30984
	         L5.95032 4.66482 V3.80783 C5.95032 3.65348 5.82538 3.52854 5.67103 3.52854 H3.98252
	         L2.8808 2.89262 C2.85202 2.87601 2.82197 2.86239 2.79256 2.84804
	         C3.01658 2.61118 3.32242 2.45251 3.66501 2.41772 L3.80784 2.41045 H5.67103 Z"
	      fill="#DCE0E5" />
	<path d="M1.64436 3.79271 L1.17857 4.59949 C1.04994 4.82228 1.12627 5.10716 1.34906 5.23578
	         L13.7194 12.3778 C13.9422 12.5064 14.227 12.4301 14.3557 12.2073 L14.8215 11.4005
	         C14.9501 11.1777 14.8738 10.8928 14.651 10.7642 L2.28065 3.62222
	         C2.05787 3.49359 1.77299 3.56992 1.64436 3.79271 Z"
	      fill="#DCE0E5" />
</svg>
