<svg width="16" height="16" viewBox="0 0 16 16" fill="none" xmlns="http://www.w3.org/2000/svg">
	<path d="M8 2.93652 L6.9243 6.20697 C6.86924 6.37435 6.77565 6.52646 6.65105 6.65105
	         C6.52646 6.77565 6.37435 6.86924 6.20697 6.9243 L2.93652 8 L6.20697 9.0757
	         C6.37435 9.13076 6.52646 9.22435 6.65105 9.34895
	         C6.77565 9.47354 6.86924 9.62565 6.9243 9.79306 L8 13.0635 L9.0757 9.79306
	         C9.13076 9.62565 9.22435 9.47354 9.34895 9.34895
	         C9.47354 9.22435 9.62565 9.13076 9.79306 9.0757 L13.0635 8 L9.79306 6.9243
	         C9.62565 6.86924 9.47354 6.77565 9.34895 6.65105
	         C9.22435 6.52646 9.13076 6.37435 9.0757 6.20697 L8 2.93652 Z"
	      fill="black"
	      stroke="#DCE0E5"
	      stroke-width="1.2"
	      fill-opacity="0.15"
	      stroke-linecap="round"
	      stroke-linejoin="round" />
	<path d="M3.33334 2V4.66666M2 3.33334H4.66666"
	      stroke="#DCE0E5"
	      stroke-width="1.2"
	      opacity="0.6"
	      stroke-linecap="round"
	      stroke-linejoin="round" />
	<path d="M12.6665 11.3333V14M11.3333 12.6666H13.9999"
	      stroke="#DCE0E5"
	      stroke-width="1.2"
	      opacity="0.6"
	      stroke-linecap="round"
	      stroke-linejoin="round" />
</svg>
